<svg width="28" height="20" viewBox="0 0 28 20" fill="none" xmlns="http://www.w3.org/2000/svg">
    <g clip-path="url(#clip0_99_231)">
        <path d="M9.21829 2.11249C9.48662 1.38666 10.5133 1.38666 10.7816 2.11249L12.5675 6.93999C12.6093 7.05259 12.6749 7.15483 12.7599 7.23969C12.8449 7.32456 12.9473 7.39004 13.06 7.43166L17.8875 9.21832C18.6125 9.48666 18.6125 10.5133 17.8875 10.7817L13.06 12.5675C12.9473 12.6093 12.8451 12.675 12.7603 12.76C12.6754 12.845 12.6099 12.9473 12.5683 13.06L10.7816 17.8875C10.5133 18.6133 9.48662 18.6133 9.21829 17.8875L7.43162 13.06C7.3899 12.9475 7.32437 12.8453 7.23952 12.7604C7.15466 12.6756 7.05248 12.61 6.93995 12.5683L2.11162 10.7817C1.38662 10.5133 1.38662 9.48666 2.11162 9.21832L6.93912 7.43166C7.0518 7.39004 7.15414 7.32456 7.23915 7.23969C7.32416 7.15483 7.38981 7.05259 7.43162 6.93999L9.21829 2.11249Z"
              fill="black"/>
    </g>
    <defs>
        <clipPath id="clip0_99_231">
            <rect width="20" height="20" fill="white"/>
        </clipPath>
    </defs>
</svg>
