<svg width="24" height="24" viewBox="0 0 24 24" fill="none" xmlns="http://www.w3.org/2000/svg">
<path fill-rule="evenodd" clip-rule="evenodd" d="M11.9999 15.586L4.70692 8.29296C4.51832 8.1108 4.26571 8.01001 4.00352 8.01228C3.74132 8.01456 3.49051 8.11973 3.3051 8.30514C3.11969 8.49055 3.01452 8.74136 3.01224 9.00356C3.00997 9.26575 3.11076 9.51836 3.29292 9.70696L11.1509 17.566C11.376 17.791 11.6812 17.9174 11.9994 17.9174C12.3177 17.9174 12.6229 17.791 12.8479 17.566L20.7079 9.70696C20.8954 9.51932 21.0007 9.26487 21.0006 8.9996C21.0005 8.73433 20.8951 8.47997 20.7074 8.29246C20.5198 8.10495 20.2653 7.99966 20.0001 7.99976C19.7348 7.99985 19.4804 8.10532 19.2929 8.29296L11.9999 15.586Z" fill="white"/>
</svg>
