<svg width="24" height="24" viewBox="0 0 24 24" fill="none" xmlns="http://www.w3.org/2000/svg">
    <path d="M7.93949 2.45395C7.65828 2.73524 7.50031 3.1167 7.50031 3.51445C7.50031 3.9122 7.65828 4.29366 7.93949 4.57495L15.3645 12L7.93949 19.4249C7.66625 19.7079 7.51506 20.0868 7.51847 20.4801C7.52189 20.8733 7.67964 21.2496 7.95776 21.5277C8.23587 21.8058 8.61209 21.9635 9.00538 21.967C9.39868 21.9704 9.77758 21.8192 10.0605 21.5459L18.546 13.0604C18.8272 12.7792 18.9852 12.3977 18.9852 12C18.9852 11.6022 18.8272 11.2207 18.546 10.9395L10.0605 2.45395C9.77919 2.17274 9.39773 2.01477 8.99998 2.01477C8.60224 2.01477 8.22078 2.17274 7.93949 2.45395Z"
          fill="white"/>
</svg>
