<svg width="28" height="20" viewBox="0 0 28 20" fill="none" xmlns="http://www.w3.org/2000/svg">
    <g clip-path="url(#clip0_99_203)">
        <path fill-rule="evenodd" clip-rule="evenodd"
              d="M5.83318 7.53337C5.43318 7.98337 5.24984 8.65837 4.88318 10.0084L4.36651 11.9417C4.00818 13.2917 3.82484 13.9667 3.94984 14.5584C4.06121 15.0734 4.33245 15.54 4.72484 15.8917C5.16651 16.3 5.84151 16.475 7.19984 16.8417L12.3498 18.2167C13.6998 18.5834 14.3748 18.7667 14.9665 18.6334C15.4805 18.5243 15.947 18.256 16.2998 17.8667C16.6998 17.4167 16.8832 16.7417 17.2498 15.3917L17.7665 13.4584C18.1248 12.1084 18.3082 11.4334 18.1832 10.8417C18.0718 10.3267 17.8006 9.86004 17.4082 9.50837C16.9665 9.10837 16.2915 8.92504 14.9332 8.55837L9.78317 7.18337C8.43318 6.81671 7.75818 6.63337 7.16651 6.76671C6.65254 6.8758 6.18601 7.14406 5.83318 7.53337ZM12.8332 13.0834C12.8248 12.9834 12.7415 12.8834 12.5665 12.6834L10.7748 10.625C10.5582 10.375 10.4498 10.2584 10.3415 10.2334C10.2955 10.2237 10.2479 10.2239 10.2019 10.234C10.156 10.244 10.1127 10.2637 10.0748 10.2917C9.98318 10.3667 9.94151 10.525 9.85818 10.8334L9.06651 13.775C8.98318 14.0917 8.94151 14.25 8.98317 14.3584C9.01651 14.4417 9.09151 14.5167 9.19151 14.5417C9.29151 14.5834 9.44151 14.525 9.75818 14.425L12.3415 13.5334C12.5915 13.45 12.7082 13.4084 12.7748 13.325C12.8021 13.2899 12.822 13.2497 12.8334 13.2068C12.8449 13.1638 12.8476 13.1191 12.8415 13.075L12.8332 13.0834Z"
              fill="black"/>
        <path fill-rule="evenodd" clip-rule="evenodd"
              d="M5.3833 2.83338L8.9833 1.85838C9.61664 1.69171 10.1416 1.55005 10.575 1.47505C11.0333 1.39171 11.4583 1.35838 11.9 1.45005C12.5775 1.5893 13.1949 1.93587 13.6666 2.44172C13.9666 2.76671 14.1666 3.15005 14.3333 3.57505C14.4916 3.99171 14.6416 4.50838 14.8333 5.13338L14.9666 5.60005C15.0285 5.81222 15.0036 6.04029 14.8973 6.23408C14.791 6.42786 14.6121 6.5715 14.4 6.63338C14.1878 6.69527 13.9597 6.67033 13.7659 6.56406C13.5722 6.45779 13.4285 6.27889 13.3666 6.06672L13.2416 5.65005C13.0416 4.97505 12.9083 4.51672 12.775 4.17505C12.65 3.84172 12.5416 3.67505 12.4416 3.57505C12.2086 3.32208 11.9029 3.14743 11.5666 3.07505C11.425 3.05005 11.2333 3.05005 10.875 3.10838C10.5166 3.17505 10.0583 3.30005 9.3833 3.48338L5.84164 4.41671C5.14164 4.60838 4.6583 4.74172 4.29997 4.86672C3.94164 4.99172 3.77497 5.10005 3.66664 5.20005C3.40302 5.44298 3.22475 5.76444 3.1583 6.11671C3.12497 6.25838 3.12497 6.45005 3.19997 6.82505C3.2833 7.20005 3.42497 7.67505 3.62497 8.37505L3.69997 8.60838C3.73116 8.71344 3.74135 8.82361 3.72996 8.93261C3.71857 9.0416 3.68583 9.14729 3.63359 9.24363C3.58136 9.33997 3.51066 9.42508 3.42554 9.4941C3.34041 9.56312 3.24253 9.61469 3.13747 9.64588C3.03241 9.67707 2.92224 9.68726 2.81324 9.67587C2.70425 9.66448 2.59856 9.63174 2.50222 9.5795C2.40588 9.52727 2.32077 9.45657 2.25175 9.37145C2.18273 9.28632 2.13116 9.18844 2.09997 9.08338L2.01664 8.81671C1.8333 8.15838 1.66664 7.62505 1.5833 7.16672C1.47193 6.71975 1.45209 6.25488 1.52497 5.80005C1.66182 5.09744 2.02121 4.45755 2.54997 3.97505C2.8833 3.66671 3.29997 3.47505 3.74164 3.30838C4.17497 3.15005 4.72497 3.00838 5.39164 2.82505L5.3833 2.83338Z"
              fill="black"/>
    </g>
    <defs>
        <clipPath id="clip0_99_203">
            <rect width="20" height="20" fill="white"/>
        </clipPath>
    </defs>
</svg>
