<svg width="413" height="251" xmlns="http://www.w3.org/2000/svg" xmlns:xlink="http://www.w3.org/1999/xlink" overflow="hidden"><defs><clipPath id="clip0"><rect x="213" y="95" width="413" height="251"/></clipPath></defs><g clip-path="url(#clip0)" transform="translate(-213 -95)"><path d="M-1661.39 3044.32-1618.83 3085.6-1526.62 3085.38C-1526.62 3085.38-1485.1 3069.03-1485.22 3028.66-1485.34 2988.3-1485.32 3005.15-1485.32 3005.15L-1485.26 2999.68-1526.64 2956.87-1600.73 2957.22C-1600.73 2957.22-1620.56 2950.84-1618.25 2935.53-1615.93 2920.23-1604.22 2914.43-1604.22 2914.43L-1486.26 2914.78-1486.38 2872.2-1616.52 2872.44C-1616.52 2872.44-1666.14 2898.07-1660.35 2936.11-1654.55 2974.16-1619.64 3001.41-1619.64 3001.41L-1541.7 3001.87C-1541.7 3001.87-1526.62 3008.13-1527.44 3023.21-1528.25 3038.29-1543.33 3042.93-1543.33 3042.93Z" fill="#3E3DF5" transform="matrix(1 0 0 1.00206 1874.39 -2746.36)"/><path d="M-1426.97 2914.94-1426.47 2977.09C-1426.47 2977.09-1392.44 2967.67-1345.35 2933.1-1298.26 2898.54-1282.95 2866.75-1282.95 2866.75L-1299.68 2853.8-1281.93 2846.59-1248.39 2835.56-1255.41 2886.48-1269.79 2877.14C-1269.79 2877.14-1283.61 2911.65-1344.62 2963.48-1405.64 3015.32-1470.92 3020.9-1470.92 3020.9L-1471.45 2872.7-1344.18 2872.7-1323.66 2892.85-1346.97 2915.23" fill="#3E3DF5" transform="matrix(1 0 0 1.00206 1874.39 -2746.36)"/><path d="M-1471.08 3043.83-1471.11 3085.87-1341.32 3085.99C-1341.32 3085.99-1312.18 3069.26-1302.21 3036.55-1292.23 3003.84-1326.8 2966.26-1326.8 2966.26-1326.8 2966.26-1343.96 2985.17-1362.64 2993.29-1381.31 3001.41-1374.69 3001.17-1374.69 3001.17L-1358.45 3001.17C-1358.45 3001.17-1340.48 3007.09-1342.56 3022.41-1344.66 3037.71-1358.92 3043.63-1358.92 3043.63Z" fill="#3E3DF5" transform="matrix(1 0 0 1.00206 1874.39 -2746.36)"/></g></svg>