<svg width="28" height="20" viewBox="0 0 28 20" fill="none" xmlns="http://www.w3.org/2000/svg">
    <g clip-path="url(#clip0_99_213)">
        <path fill-rule="evenodd" clip-rule="evenodd"
              d="M2.03317 3.48329C1.6665 4.19996 1.6665 5.13329 1.6665 6.99996V13C1.6665 14.8666 1.6665 15.8 2.03317 16.5166C2.35213 17.1403 2.85948 17.6477 3.48317 17.9666C4.19984 18.3333 5.13317 18.3333 6.99984 18.3333H12.9998C14.8665 18.3333 15.7998 18.3333 16.5165 17.9666C17.1402 17.6477 17.6475 17.1403 17.9665 16.5166C18.3332 15.8 18.3332 14.8666 18.3332 13V6.99996C18.3332 5.13329 18.3332 4.19996 17.9665 3.48329C17.6475 2.8596 17.1402 2.35226 16.5165 2.03329C15.7998 1.66663 14.8665 1.66663 12.9998 1.66663H6.99984C5.13317 1.66663 4.19984 1.66663 3.48317 2.03329C2.85948 2.35226 2.35213 2.8596 2.03317 3.48329ZM5.83317 5.83329C5.61216 5.83329 5.4002 5.92109 5.24392 6.07737C5.08763 6.23365 4.99984 6.44561 4.99984 6.66663C4.99984 6.88764 5.08763 7.0996 5.24392 7.25588C5.4002 7.41216 5.61216 7.49996 5.83317 7.49996H14.1665C14.3875 7.49996 14.5995 7.41216 14.7558 7.25588C14.912 7.0996 14.9998 6.88764 14.9998 6.66663C14.9998 6.44561 14.912 6.23365 14.7558 6.07737C14.5995 5.92109 14.3875 5.83329 14.1665 5.83329H5.83317ZM4.99984 9.99996C4.99984 9.77894 5.08763 9.56698 5.24392 9.4107C5.4002 9.25442 5.61216 9.16663 5.83317 9.16663H14.1665C14.3875 9.16663 14.5995 9.25442 14.7558 9.4107C14.912 9.56698 14.9998 9.77894 14.9998 9.99996C14.9998 10.221 14.912 10.4329 14.7558 10.5892C14.5995 10.7455 14.3875 10.8333 14.1665 10.8333H5.83317C5.61216 10.8333 5.4002 10.7455 5.24392 10.5892C5.08763 10.4329 4.99984 10.221 4.99984 9.99996ZM5.83317 12.5C5.61216 12.5 5.4002 12.5878 5.24392 12.744C5.08763 12.9003 4.99984 13.1123 4.99984 13.3333C4.99984 13.5543 5.08763 13.7663 5.24392 13.9225C5.4002 14.0788 5.61216 14.1666 5.83317 14.1666H9.99984C10.2209 14.1666 10.4328 14.0788 10.5891 13.9225C10.7454 13.7663 10.8332 13.5543 10.8332 13.3333C10.8332 13.1123 10.7454 12.9003 10.5891 12.744C10.4328 12.5878 10.2209 12.5 9.99984 12.5H5.83317Z"
              fill="black"/>
    </g>
    <defs>
        <clipPath id="clip0_99_213">
            <rect width="20" height="20" fill="white"/>
        </clipPath>
    </defs>
</svg>
