<svg width="28" height="20" viewBox="0 0 28 20" fill="none" xmlns="http://www.w3.org/2000/svg">
    <g clip-path="url(#clip0_99_221)">
        <path d="M15 11.975V12.5C15 13.275 15 13.6666 14.95 13.9833C14.8128 14.8534 14.4033 15.6576 13.7805 16.2805C13.1576 16.9033 12.3534 17.3127 11.4833 17.45C11.1583 17.5 10.775 17.5 10 17.5C9.225 17.5 8.83333 17.5 8.51667 17.45C7.64658 17.3127 6.84236 16.9033 6.21951 16.2805C5.59666 15.6576 5.18723 14.8534 5.05 13.9833C5 13.6666 5 13.275 5 12.5V11.975L7.53333 13.4083C8.28545 13.8349 9.13534 14.0591 10 14.0591C10.8647 14.0591 11.7145 13.8349 12.4667 13.4083L15 11.975Z"
              fill="black"/>
        <path d="M2.46661 6.05835C2.21405 6.20486 2.0044 6.41515 1.85867 6.66816C1.71294 6.92118 1.63623 7.20804 1.63623 7.50002C1.63623 7.792 1.71294 8.07886 1.85867 8.33187C2.0044 8.58489 2.21405 8.79518 2.46661 8.94168L7.47494 11.8584C8.23997 12.305 9.10992 12.5403 9.99578 12.5403C10.8816 12.5403 11.7516 12.305 12.5166 11.8584L16.6666 9.44168V11.05C16.6666 11.271 16.7544 11.483 16.9107 11.6393C17.067 11.7956 17.2789 11.8834 17.4999 11.8834C17.721 11.8834 17.9329 11.7956 18.0892 11.6393C18.2455 11.483 18.3333 11.271 18.3333 11.05V7.77502C18.4416 7.13335 18.1666 6.44168 17.5249 6.05835L12.5166 3.14168C11.7516 2.69507 10.8816 2.45972 9.99578 2.45972C9.10992 2.45972 8.23997 2.69507 7.47494 3.14168L2.46661 6.05835Z"
              fill="black"/>
    </g>
    <defs>
        <clipPath id="clip0_99_221">
            <rect width="20" height="20" fill="white"/>
        </clipPath>
    </defs>
</svg>
