<svg width="24" height="24" viewBox="0 0 24 24" fill="none" xmlns="http://www.w3.org/2000/svg">
    <path d="M18 2H6C4.34 2 3 3.33 3 4.97V15.88C3 17.52 4.34 18.85 6 18.85H6.76C7.55 18.85 8.31 19.16 8.87 19.72L10.17 21.02C11.28 22.13 13.13 22.13 14.24 21.02L15.54 19.72C16.1 19.16 16.86 18.85 17.65 18.85H18C19.66 18.85 21 17.52 21 15.88V4.97C21 3.33 19.66 2 18 2ZM12 14.88C11.04 14.88 10.25 14.09 10.25 13.13C10.25 12.17 11.04 11.38 12 11.38C12.96 11.38 13.75 12.17 13.75 13.13C13.75 14.09 12.96 14.88 12 14.88ZM14.68 8.35C14.27 8.76 13.64 8.76 13.23 8.35L12 7.12L10.77 8.35C10.36 8.76 9.73 8.76 9.32 8.35C8.91 7.94 8.91 7.31 9.32 6.9L11.23 4.99C11.64 4.58 12.27 4.58 12.68 4.99L14.59 6.9C15.09 7.31 15.09 7.94 14.68 8.35Z"
          stroke="#667085" stroke-width="1.5" stroke-miterlimit="10"/>
</svg> 