<svg width="15" height="15" viewBox="0 0 15 15" fill="none" xmlns="http://www.w3.org/2000/svg">
    <path d="M4.35264 1.86383H2.11412C0.946582 1.86383 0 2.81041 0 3.97795V6.21647C0 7.38401 0.946582 8.33056 2.11412 8.33056H2.33558C2.52126 8.33056 2.6952 8.4222 2.80052 8.57554C2.90537 8.72888 2.9284 8.92411 2.86128 9.09735L1.59867 12.3694C1.53155 12.5428 1.55458 12.738 1.65943 12.8911C1.76476 13.0445 1.93869 13.1361 2.12438 13.1361H3.61084C3.82052 13.1361 4.01309 13.0195 4.11009 12.8338L5.90473 9.40523C6.27413 8.69947 6.46717 7.91457 6.46717 7.11796V3.97792C6.46723 2.81041 5.52018 1.86383 4.35264 1.86383Z"
          fill="white"/>
    <path d="M12.886 1.86383H10.6474C9.47985 1.86383 8.53333 2.81041 8.53333 3.97795V6.21647C8.53333 7.38401 9.47988 8.33056 10.6474 8.33056H10.8684C11.0541 8.33056 11.2285 8.4222 11.3333 8.57554C11.4387 8.72888 11.4612 8.92411 11.3946 9.09735L10.1315 12.3694C10.0644 12.5428 10.0874 12.7381 10.1927 12.8912C10.2976 13.0445 10.4715 13.1362 10.6577 13.1362H12.1437C12.3534 13.1362 12.5459 13.0195 12.6434 12.8339L14.4376 9.40526C14.807 8.69947 15 7.9146 15 7.11796V3.97792C15 2.81041 14.0535 1.86383 12.886 1.86383Z"
          fill="white"/>
</svg>
