<svg width="25" height="24" viewBox="0 0 25 24" fill="none" xmlns="http://www.w3.org/2000/svg">
    <path d="M18.172 11.74C18.1345 11.6043 18.0688 11.4781 17.9792 11.3695C17.8896 11.2609 17.7781 11.1725 17.652 11.11L14.262 9.43001L15.172 3.14001C15.2019 2.92201 15.1591 2.70024 15.0502 2.50905C14.9412 2.31786 14.7723 2.16793 14.5695 2.08249C14.3668 1.99705 14.1415 1.98088 13.9286 2.03648C13.7157 2.09207 13.5271 2.21633 13.392 2.39001L6.39197 11.39C6.29695 11.5113 6.23127 11.653 6.20005 11.8039C6.16882 11.9548 6.1729 12.1109 6.21197 12.26C6.25611 12.4092 6.33283 12.5466 6.4366 12.6625C6.54036 12.7784 6.66857 12.8697 6.81197 12.93L11.082 14.64L10.172 20.86C10.141 21.0833 10.1864 21.3104 10.3008 21.5046C10.4151 21.6989 10.5917 21.8487 10.802 21.93C10.9192 21.9786 11.0451 22.0024 11.172 22C11.3367 21.9992 11.4986 21.9576 11.6434 21.8791C11.7882 21.8006 11.9114 21.6876 12.002 21.55L18.002 12.55C18.0865 12.4349 18.1454 12.3031 18.1747 12.1634C18.204 12.0237 18.2031 11.8793 18.172 11.74Z"
          fill="#C7FF74" stroke="#C7FF74" stroke-width="2.66667"/>
</svg>
